# xmcd
#
# Track frame offsets:
#	150
#	34418
#	49473
#	70901
#	94743
#	118343
#	138896
#	158230
#	180321
#	194388
#	202096
#	230540
#	249693
#
# Disc length: 3505 seconds
#
# Revision: 0
# Processed by: cddbd v1.5.2PL0 Copyright (c) Steve Scherf et al.
# Submitted via: dBpowerAMP V4.0
#
DISCID=c20daf0d
DTITLE=Jorge Santana/Salvador Santana Band - Family Style - CD2
DYEAR=2006
DGENRE=Blues Rock
TTITLE0=Tio George/Christo Rey
TTITLE1=Dancing Lady
TTITLE2=Love Me Tonight
TTITLE3=Three Mile Island
TTITLE4=Ain't No
TTITLE5=Feeling Good
TTITLE6=New York, New York
TTITLE7=My Inspiration
TTITLE8=It's All About Love
TTITLE9=Anthony's Juice Blues
TTITLE10=Another Rainy Day
TTITLE11=Electric Moon
TTITLE12=SSB
EXTD=
EXTT0=
EXTT1=
EXTT2=
EXTT3=
EXTT4=
EXTT5=
EXTT6=
EXTT7=
EXTT8=
EXTT9=
EXTT10=
EXTT11=
EXTT12=
PLAYORDER=
